<?xml version="1.0" encoding="utf-8"?>
<!-- Svg Vector Icons : http://www.onlinewebfonts.com/icon -->
<!DOCTYPE svg PUBLIC "-//W3C//DTD SVG 1.1//EN" "http://www.w3.org/Graphics/SVG/1.1/DTD/svg11.dtd">
<svg version="1.1" xmlns="http://www.w3.org/2000/svg" xmlns:xlink="http://www.w3.org/1999/xlink" x="0px" y="0px" viewBox="0 0 1000 1000" enable-background="new 0 0 1000 1000" xml:space="preserve">
<metadata> Svg Vector Icons : http://www.onlinewebfonts.com/icon </metadata>
<g><g transform="translate(0.000000,511.000000) scale(0.100000,-0.100000)"><path d="M3649.1,4810.6c-81.9-105.7-226.4-317-323.4-470.1c-94.9-153.1-235-340.7-308.3-418.3c-125.1-129.4-146.6-142.3-265.2-166c-71.1-12.9-299.7-32.3-506.7-45.3c-463.6-25.9-823.7-64.7-851.7-90.6c-12.9-10.8-25.9-284.6-32.3-692.1l-10.8-672.7l-60.4-122.9c-64.7-131.5-207-260.9-515.3-467.9c-179-118.6-504.6-383.8-610.2-495.9l-64.7-69l62.5-107.8c32.3-60.4,161.7-265.2,286.8-457.1c299.7-461.4,370.9-593,386-707.2c8.6-79.8-10.8-155.2-131.5-493.8c-79.8-219.9-185.4-530.4-239.3-690l-94.9-288.9l45.3-47.4c60.4-64.7,260.9-168.2,657.6-338.5c321.3-140.2,526.1-252.3,593-329.9c75.5-86.3,155.2-340.7,245.8-795.7c110-547.7,150.9-698.6,196.2-715.9c45.3-17.2,521.8,28,832.3,79.8c422.6,69,558.5,75.5,651.2,32.3c43.1-21.6,269.5-222.1,504.6-448.5c416.2-401.1,614.5-575.7,653.3-575.7c28,0,416.2,314.8,741.7,601.6c155.3,133.7,321.3,263,370.9,286.8c116.4,51.7,194.1,43.1,722.3-81.9c478.7-112.1,707.2-153.1,804.3-142.3c92.7,10.8,138,94.9,226.4,424.8c90.6,342.9,207,702.9,280.3,862.5c53.9,122.9,69,135.8,207,209.2c82,43.1,276,122.9,429.1,174.6c649,224.3,851.7,314.8,851.7,379.5c0,49.6-155.3,612.3-226.4,821.5c-56.1,161.7-118.6,472.2-118.6,580c0,84.1,189.7,370.8,575.7,881.9C9833.2,502.4,9900,601.6,9900,644.7c0,47.4-245.8,291.1-649,640.4c-237.2,207-390.3,355.8-407.5,396.7c-30.2,75.5-21.6,480.8,21.6,961.7c30.2,317,17.2,590.8-25.9,616.7c-60.4,38.8-575.7,129.4-1263.5,222.1c-86.3,12.9-230.7,114.3-293.3,211.3c-28,38.8-187.6,321.3-357.9,627.5l-308.3,556.3l-88.4-12.9c-49.6-8.6-243.7-84.1-433.4-172.5c-491.6-224.2-743.9-327.7-832.3-345c-101.3-19.4-332.1,71.2-631.8,245.8c-327.7,189.8-754.7,411.8-795.6,411.8C3815.2,5004.6,3731.1,4918.4,3649.1,4810.6z M4246.4,3913.6c146.6-43.1,377.3-155.2,627.5-308.3c99.2-60.4,211.3-114.3,248-120.7c66.8-12.9,163.9,23.7,767.6,278.1c116.4,49.6,217.8,77.6,278.2,77.6c86.3,0,105.6-10.8,194.1-103.5c53.9-56.1,150.9-198.4,215.6-317c62.5-118.6,159.5-297.6,215.6-398.9l99.2-183.3l150.9-25.9c84.1-15.1,271.7-45.3,420.5-71.2c314.8-51.7,465.7-97,532.6-157.4c92.7-84.1,99.2-153.1,69-696.5l-28-506.7l129.4-129.4c69-71.2,217.8-202.7,327.7-293.2c230.7-189.7,349.3-336.4,349.3-435.6c0-129.4-138-349.3-536.9-858.2c-58.2-73.3-88.4-133.7-88.4-176.8c0-34.5,38.8-185.4,84.1-332c99.2-312.7,161.7-621,144.4-711.6c-6.5-34.5-32.3-90.6-56.1-122.9c-43.1-60.4-103.5-88.4-862.5-377.3c-77.6-30.2-153.1-62.5-166-71.2c-15.1-10.8-45.3-84.1-66.8-168.2c-196.2-731-284.6-912.1-474.4-948.7c-36.7-6.5-248,25.8-491.6,73.3c-235,49.6-472.2,94.9-526.1,101.3l-97,12.9l-194.1-181.1c-181.1-168.2-461.4-388.1-564.9-444.2c-69-36.6-248-30.2-308.3,12.9c-30.2,19.4-211.3,187.6-401.1,377.3c-269.5,263.1-360.1,340.7-405.4,340.7c-30.2,0-202.7-23.7-383.8-53.9c-375.2-62.5-595.1-69-685.7-21.6c-99.2,51.8-163.9,219.9-269.5,700.8c-79.8,366.6-105.6,448.5-146.6,478.7c-25.9,21.6-196.2,105.6-379.5,189.7c-463.6,211.3-605.9,327.7-605.9,493.8c0,56.1,71.2,271.7,224.2,683.5l120.8,325.6l-45.3,94.9c-25.9,51.8-116.4,202.7-198.4,332.1C1264.4,580,1167.3,772,1167.3,860.4c0,99.2,142.3,245.8,524,539.1c163.9,127.2,314.8,243.7,334.2,258.7c32.3,23.7,38.8,97,47.4,543.4c12.9,562.8,15.1,569.2,153.1,672.7c62.5,47.4,360.1,94.9,793.5,122.9c161.7,10.8,308.3,25.9,327.7,34.5c19.4,6.5,47.4,38.8,60.4,69c38.8,86.3,379.5,590.8,467.9,694.3c71.1,81.9,174.7,148.8,230.7,153.1C4117,3948.1,4179.6,3933,4246.4,3913.6z"/><path d="M4009.2,3458.6c-64.7-92.7-187.6-276-271.7-405.4c-200.5-310.5-215.6-319.1-707.2-366.6c-200.5-19.4-422.6-41-493.8-49.6l-129.4-15.1l-12.9-161.7c-8.6-88.4-15.1-314.8-17.2-502.4c-2.2-370.9-21.6-455-118.6-524c-32.3-23.7-222.1-166-422.6-317l-364.4-276l81.9-133.7c45.3-73.3,142.3-230.7,215.6-347.2c207-332.1,224.2-373,226.4-530.4c0-120.7-12.9-172.5-99.2-368.7c-92.7-213.5-224.2-618.8-204.8-636.1c4.3-4.3,161.7-82,351.5-172.5c386-185.4,524-269.5,586.5-364.4c41-58.2,103.5-288.9,235-840.9l41-172.5l79.8-6.5c45.3-4.3,185.4,8.6,312.7,28c127.2,19.4,332.1,38.8,457.1,45.3c224.2,12.9,226.4,12.9,310.5-47.4c45.3-34.5,226.4-204.8,401.1-379.5c176.8-176.8,332.1-319.1,347.2-319.1c30.2,0,135.8,84.1,485.1,390.3c217.8,191.9,278.2,232.9,368.7,254.5c79.8,19.4,131.5,21.6,191.9,4.3c47.4-12.9,185.4-40.9,310.5-66.8c125.1-23.7,273.8-58.2,332.1-75.5c58.2-17.2,142.3-32.3,187.6-32.3h79.8l75.5,232.9c43.1,127.2,107.8,338.5,144.5,467.9c36.7,131.5,81.9,258.8,97,284.6c38.8,58.2,207,135.8,556.3,256.6c362.2,125.1,489.5,189.8,489.5,248c0,56.1-45.3,237.2-140.2,547.7c-38.8,131.5-77.6,295.4-84.1,366.6c-15.1,127.2-15.1,131.5,86.3,280.3C8050-161.7,8175,13,8272.1,142.3c97,131.5,194.1,265.2,215.6,297.6l38.8,60.4l-84.1,86.2c-45.3,47.4-166,157.4-267.4,241.5c-263.1,219.9-409.7,362.2-433.4,424.8c-15.1,34.5-10.8,209.2,15.1,532.6c19.4,263.1,30.2,502.4,21.6,532.6c-15.1,60.4-53.9,71.2-530.4,142.3c-159.6,23.7-338.5,58.2-398.9,75.5c-103.5,32.3-248,144.5-248,194.1c0,12.9-41,90.6-92.7,172.5c-49.6,84.1-148.8,254.4-217.8,383.8c-107.8,194.1-135.8,230.7-179,230.7c-28,0-194.1-66.8-366.6-150.9c-351.5-168.2-528.3-226.4-649-211.3c-47.4,6.5-248,105.7-489.5,241.5c-226.4,125.1-426.9,228.6-444.2,228.6C4142.9,3624.6,4073.9,3549.2,4009.2,3458.6z M7189.6,1550.3c69-36.7,101.3-153.1,101.3-366.6c0-237.2-21.6-321.3-105.7-429.1l-64.7-77.6l53.9-25.9c88.4-38.8,112.1-133.7,118.6-498.1l8.6-332.1l-127.2-30.2c-105.6-28-127.2-28-144.4-2.2c-10.8,17.3-19.4,153.1-19.4,301.9c0,230.7-6.5,280.3-38.8,321.3s-51.8,45.3-140.2,32.3l-101.3-15.1V47.5v-381.6l-112.1-30.2c-62.5-15.1-127.2-32.3-140.2-36.7c-21.6-8.6-28,183.3-28,916.4c0,916.4,0,929.3,43.1,942.3c25.9,8.6,153.1,43.1,286.8,75.5C7015,1595.6,7099.1,1597.8,7189.6,1550.3z M6277.6,1255v-129.4l-112.1-30.2c-62.5-19.4-174.6-49.6-248-69l-135.8-38.8V743.9c0-183.3,6.5-245.8,28-245.8c13,0,94.9,19.4,176.8,43.1s157.4,43.1,166,43.1c10.8,0,17.2-62.5,17.2-140.2c0-92.7-8.6-140.2-25.9-140.2c-12.9,0-101.3-19.4-194.1-45.3l-168.2-45.3V-51.7v-265.2l232.9,62.5c127.2,34.5,239.4,62.5,248,62.5c8.6,0,15.1-60.4,10.8-133.7l-6.5-133.7l-323.4-88.4c-176.8-49.6-349.3-97-381.7-105.7l-60.4-12.9v927.2v927.2l60.4,12.9c32.3,8.6,185.4,51.7,338.5,94.9C6290.5,1408,6277.6,1410.2,6277.6,1255z M5367.6,1011.3l-6.5-135.8l-230.7-62.5l-232.9-64.7v-276V194.1l49.6,15.1c94.9,30.2,263.1,73.3,291.1,73.3c17.2,0,25.9-38.8,25.9-125.1V30.2l-176.8-51.7l-179-51.8l-6.5-381.7l-4.3-379.5l-103.5-23.7c-56.1-15.1-118.6-30.2-138-36.6c-36.7-10.8-38.8,43.1-38.8,912.1v922.9l351.5,99.2c191.9,56.1,362.2,101.3,377.3,103.5C5367.6,1145,5372,1110.5,5367.6,1011.3z M4487.9,767.6c0-138,8.6-131.5-293.2-207l-181.1-45.3V237.2c0-153.1,6.5-278.2,17.2-278.2c8.6,0,77.6,19.4,155.3,43.1c202.7,62.5,196.2,64.7,189.7-90.6l-6.5-133.7l-176.8-43.1l-179-43.1v-379.5v-379.5l-140.2-45.3l-140.2-45.3l4.3,929.3l6.5,929.3l334.2,90.6c183.3,51.7,351.5,92.7,373,92.7C4481.4,886.2,4487.9,866.8,4487.9,767.6z M3403.3,528.3c122.9-77.6,125.1-90.6,125.1-817.2c0-746,2.2-733.1-157.4-901.3c-135.8-142.3-401.1-207-543.4-133.7c-133.7,69-140.2,105.7-140.2,808.6c0,707.2,6.5,743.9,135.8,888.4C2987.2,554.2,3252.4,625.3,3403.3,528.3z"/><path d="M6801.5,1272.2l-71.2-21.6V972.5c0-168.2,8.6-280.3,21.6-280.3c10.8,0,60.4,15.1,110,36.7c110,43.1,148.8,125.1,148.8,317C7010.7,1287.3,6978.3,1323.9,6801.5,1272.2z"/><path d="M3049.7,250.2c-25.9-19.4-58.2-69-71.1-114.3c-23.7-88.4-25.9-1060.9-2.2-1147.1c23.7-84.1,135.8-86.2,217.8-2.1l64.7,62.5v575.7c0,353.6-8.6,590.8-21.6,616.7C3209.3,291.1,3114.4,295.4,3049.7,250.2z"/></g></g>
</svg>