<?xml version="1.0" standalone="no"?>
<!DOCTYPE svg PUBLIC "-//W3C//DTD SVG 20010904//EN"
 "http://www.w3.org/TR/2001/REC-SVG-20010904/DTD/svg10.dtd">
<svg version="1.0" xmlns="http://www.w3.org/2000/svg"
 width="50.000000pt" height="50.000000pt" viewBox="0 0 1280.000000 1280.000000"
 preserveAspectRatio="xMidYMid meet">
<metadata>
Created by potrace 1.15, written by Peter Selinger 2001-2017
</metadata>
<g transform="translate(0.000000,1280.000000) scale(0.100000,-0.100000)"
fill="#000000" stroke="none">
<path d="M6800 12777 c0 -13 -20 -238 -45 -500 -25 -262 -45 -483 -45 -491 0
-17 60 -28 66 -12 8 25 94 1007 89 1016 -3 6 -19 10 -36 10 -24 0 -29 -4 -29
-23z"/>
<path d="M6124 12583 c3 -115 11 -354 16 -533 5 -179 12 -403 16 -497 l6 -173
102 6 c55 4 102 8 103 8 2 1 -6 272 -17 602 -11 329 -20 643 -21 697 l-2 97
-105 0 -105 0 7 -207z"/>
<path d="M5493 12723 c-15 -3 -23 -12 -23 -24 0 -11 29 -214 64 -452 36 -238
68 -456 72 -484 7 -55 13 -60 62 -47 14 4 22 14 22 28 0 12 -31 234 -70 494
-38 259 -70 476 -70 482 0 10 -16 11 -57 3z"/>
<path d="M7470 12698 c0 -3 -45 -223 -100 -489 -55 -266 -100 -487 -100 -491
0 -8 62 -30 68 -24 6 6 202 955 202 978 0 10 -6 18 -12 18 -7 0 -23 3 -35 6
-13 4 -23 4 -23 2z"/>
<path d="M4823 12600 c-13 -5 -21 -15 -18 -22 3 -7 57 -224 120 -483 63 -258
117 -475 119 -482 4 -8 15 -8 46 -1 23 6 39 16 37 22 -2 6 -58 228 -123 494
-129 525 -118 497 -181 472z"/>
<path d="M8131 12528 c-38 -121 -281 -936 -281 -944 0 -8 61 -38 65 -31 13 17
294 982 288 988 -4 4 -20 11 -34 14 -24 6 -28 3 -38 -27z"/>
<path d="M4193 12398 c-13 -6 -23 -16 -23 -23 0 -12 346 -925 354 -932 2 -2
20 3 40 11 l36 15 -21 53 c-11 29 -91 240 -178 468 -97 254 -164 416 -172 417
-8 1 -24 -3 -36 -9z"/>
<path d="M8578 11888 c-103 -249 -190 -461 -193 -470 -5 -12 2 -21 24 -32 16
-9 32 -12 35 -8 4 7 355 854 377 909 7 19 4 25 -21 38 -16 8 -31 15 -32 15 -2
0 -88 -204 -190 -452z"/>
<path d="M3588 12134 c-16 -8 -28 -19 -28 -24 0 -9 436 -889 445 -898 8 -8 66
31 62 41 -18 46 -441 897 -446 897 -3 -1 -18 -8 -33 -16z"/>
<path d="M8995 11479 c-176 -336 -321 -616 -323 -622 -1 -7 37 -33 85 -60 65
-35 89 -44 95 -35 33 53 649 1230 646 1234 -8 7 -171 94 -177 94 -3 -1 -150
-275 -326 -611z"/>
<path d="M3027 11833 c-84 -53 -87 -56 -74 -77 8 -11 171 -268 362 -571 191
-302 354 -560 362 -572 14 -21 14 -21 98 30 46 29 84 56 85 60 0 7 -679 1088
-734 1169 -11 15 -21 11 -99 -39z"/>
<path d="M9660 11309 c-157 -226 -286 -414 -288 -418 -1 -3 11 -14 27 -24 l29
-17 35 47 c19 27 149 213 290 415 l256 368 -29 20 c-15 11 -30 20 -32 20 -1
-1 -131 -186 -288 -411z"/>
<path d="M2447 11420 l-26 -21 315 -399 315 -400 30 22 c16 12 28 27 25 34 -7
19 -618 784 -626 784 -4 0 -19 -9 -33 -20z"/>
<path d="M10155 10943 c-176 -207 -321 -382 -323 -389 -2 -7 9 -20 23 -30 22
-15 28 -15 39 -3 8 8 154 180 325 383 l312 369 -22 23 c-13 13 -25 24 -29 24
-3 0 -150 -170 -325 -377z"/>
<path d="M1940 10975 l-23 -24 191 -198 c105 -109 265 -272 355 -362 l165
-164 32 23 32 23 -108 111 c-249 254 -609 616 -615 616 -3 0 -16 -11 -29 -25z"/>
<path d="M10598 10519 l-367 -349 23 -27 23 -27 31 26 c17 14 184 171 372 349
l341 322 -28 29 c-15 15 -27 28 -27 27 -1 0 -166 -157 -368 -350z"/>
<path d="M1490 10489 c-22 -30 -22 -32 -4 -49 44 -41 755 -620 762 -620 11 1
44 49 40 59 -2 8 -744 621 -768 636 -4 2 -17 -10 -30 -26z"/>
<path d="M11018 10072 c-213 -164 -393 -303 -400 -309 -9 -10 -7 -18 12 -38
13 -14 30 -23 37 -21 8 3 191 141 409 307 l395 302 -27 28 c-15 16 -30 29 -33
28 -3 0 -180 -134 -393 -297z"/>
<path d="M1087 9940 l-18 -30 68 -43 c332 -213 785 -498 787 -495 1 2 12 16
24 32 l22 28 -423 269 c-232 148 -427 269 -432 269 -6 0 -19 -13 -28 -30z"/>
<path d="M11300 9524 c-278 -157 -553 -312 -612 -344 l-107 -60 56 -89 55 -89
102 57 c55 32 332 187 614 346 396 222 512 291 507 303 -10 27 -97 162 -104
161 -3 0 -233 -129 -511 -285z"/>
<path d="M755 9414 c-25 -48 -43 -90 -38 -94 11 -11 1225 -651 1228 -648 8 9
95 171 95 177 -1 6 -1222 651 -1233 651 -3 0 -26 -39 -52 -86z"/>
<path d="M11678 9022 l-458 -227 21 -32 c12 -18 25 -33 31 -33 12 0 889 427
901 439 6 6 -29 84 -36 80 -1 0 -208 -103 -459 -227z"/>
<path d="M476 8789 c-10 -23 -13 -45 -9 -50 9 -9 909 -369 922 -369 8 0 45 80
39 85 -4 4 -927 375 -932 375 -2 0 -11 -19 -20 -41z"/>
<path d="M11925 8443 c-258 -91 -472 -167 -474 -169 -2 -2 1 -21 7 -42 l12
-39 352 124 c194 68 407 142 473 165 66 23 124 44 128 48 10 9 -5 73 -18 76
-6 1 -221 -72 -480 -163z"/>
<path d="M260 8164 c-24 -61 -47 -51 469 -198 264 -75 482 -136 484 -136 3 0
12 19 20 43 l15 44 -482 137 c-264 75 -484 136 -489 136 -4 0 -12 -12 -17 -26z"/>
<path d="M12450 7954 c-74 -19 -292 -72 -485 -118 l-350 -83 3 -39 c2 -21 5
-40 7 -42 3 -3 223 48 838 194 133 32 147 38 147 57 0 30 -11 67 -19 66 -3 -1
-67 -16 -141 -35z"/>
<path d="M106 7527 c-3 -12 -6 -33 -6 -47 0 -24 5 -27 73 -39 39 -7 261 -51
492 -96 231 -46 422 -81 424 -79 2 2 7 21 11 43 6 35 5 40 -14 45 -12 2 -230
46 -486 96 -256 50 -470 92 -477 95 -6 2 -14 -6 -17 -18z"/>
<path d="M12206 7264 c-258 -35 -471 -66 -474 -68 -2 -3 -1 -21 2 -40 5 -25
11 -33 24 -30 9 2 233 31 497 65 264 34 481 63 482 64 1 0 0 18 -4 38 -5 32
-9 37 -32 36 -14 -1 -237 -30 -495 -65z"/>
<path d="M26 6855 c-12 -43 -6 -65 17 -69 30 -7 979 -87 982 -84 2 2 6 21 9
44 l7 40 -373 33 c-205 18 -432 38 -505 45 -129 12 -132 11 -137 -9z"/>
<path d="M6326 6734 c-106 -34 -183 -104 -233 -211 -58 -126 -55 -248 8 -348
29 -46 29 -46 11 -73 -38 -54 -163 -291 -241 -459 -384 -820 -791 -1990 -1171
-3366 -67 -241 -76 -294 -49 -285 13 4 207 361 472 868 523 1002 941 1926
1168 2578 52 149 122 379 144 469 17 71 18 73 54 79 56 9 120 31 166 59 39 22
135 118 135 134 0 3 179 6 398 6 381 0 496 6 882 41 449 40 1005 118 1540 214
91 17 175 33 188 35 23 6 30 33 10 40 -19 6 -472 43 -743 60 -789 49 -1466 47
-1985 -5 -107 -11 -216 -23 -241 -28 -45 -9 -46 -8 -64 25 -28 51 -99 111
-173 146 -81 38 -196 47 -276 21z"/>
<path d="M12090 6677 c-382 -5 -696 -10 -698 -12 -2 -1 0 -48 4 -104 l7 -101
596 5 c328 3 642 8 699 11 l102 6 0 98 c0 55 -3 100 -7 102 -5 2 -321 -1 -703
-5z"/>
<path d="M810 6330 c-201 -4 -465 -8 -587 -9 l-223 -1 0 -107 0 -106 288 6
c158 4 475 10 705 13 l418 7 -3 101 -3 101 -115 1 c-63 0 -279 -3 -480 -6z"/>
<path d="M11777 6043 c-4 -20 -5 -38 -3 -40 3 -3 366 -32 829 -66 98 -7 180
-11 182 -8 3 2 5 19 5 37 0 40 46 33 -515 74 -225 16 -429 32 -451 35 -41 4
-42 4 -47 -32z"/>
<path d="M565 5621 l-490 -67 1 -42 c0 -23 4 -45 7 -49 6 -5 871 105 968 124
25 5 26 8 22 47 -3 22 -8 44 -12 47 -3 3 -226 -24 -496 -60z"/>
<path d="M11710 5503 c0 -10 -3 -28 -6 -39 -5 -20 1 -23 93 -39 54 -10 278
-51 497 -91 220 -41 400 -73 402 -71 1 1 4 18 6 37 l3 35 -90 17 c-49 9 -263
49 -475 88 -212 38 -395 72 -407 75 -17 4 -23 1 -23 -12z"/>
<path d="M1000 5074 c-74 -19 -283 -69 -465 -113 l-330 -79 3 -43 c2 -24 4
-44 5 -46 1 -1 222 51 490 115 530 127 498 115 481 180 -8 28 -18 28 -184 -14z"/>
<path d="M11580 4934 c-7 -19 -10 -36 -8 -38 1 -1 217 -65 478 -141 261 -76
480 -140 486 -142 8 -3 39 67 31 73 -3 2 -965 284 -971 284 -2 0 -10 -16 -16
-36z"/>
<path d="M855 4422 c-259 -90 -472 -166 -473 -168 -8 -6 20 -76 32 -80 9 -3
639 212 898 307 l56 21 -15 36 c-8 21 -18 40 -21 43 -4 4 -218 -68 -477 -159z"/>
<path d="M11395 4400 c-9 -18 -15 -33 -13 -34 2 -1 214 -86 471 -188 l468
-186 16 34 c9 19 15 35 12 37 -8 6 -899 359 -918 364 -14 4 -24 -3 -36 -27z"/>
<path d="M10817 4059 c-26 -50 -47 -92 -45 -94 15 -10 1205 -687 1211 -688 5
-1 31 36 57 83 36 64 45 88 37 96 -12 11 -1178 682 -1200 689 -7 3 -33 -35
-60 -86z"/>
<path d="M1100 3833 c-245 -118 -446 -216 -448 -218 -5 -4 31 -75 38 -75 15 0
895 430 898 439 4 12 -26 71 -36 70 -4 0 -207 -97 -452 -216z"/>
<path d="M1695 3624 c-214 -140 -479 -313 -588 -384 l-197 -129 52 -86 c29
-47 57 -84 63 -81 26 9 1175 760 1175 767 0 13 -96 163 -106 165 -5 2 -184
-112 -399 -252z"/>
<path d="M10861 3399 c-12 -17 -21 -32 -19 -34 1 -1 192 -127 423 -280 l419
-277 23 27 c13 14 23 29 23 33 0 6 -818 550 -840 560 -3 1 -16 -12 -29 -29z"/>
<path d="M1750 2804 c-217 -168 -397 -310 -399 -316 -5 -14 41 -59 55 -54 11
4 753 574 782 600 9 9 6 18 -15 44 l-28 31 -395 -305z"/>
<path d="M10547 2962 c-10 -10 -17 -23 -16 -28 0 -5 172 -156 382 -336 l381
-328 22 27 21 26 -146 127 c-438 379 -615 530 -621 530 -4 0 -14 -8 -23 -18z"/>
<path d="M2147 2327 l-359 -352 31 -29 31 -30 153 149 c83 83 245 242 360 354
l207 204 -27 29 c-15 15 -29 28 -32 28 -3 -1 -167 -159 -364 -353z"/>
<path d="M10148 2537 l-27 -22 352 -368 351 -368 25 26 26 25 -86 88 c-47 48
-184 191 -304 317 -120 127 -239 251 -264 277 l-46 47 -27 -22z"/>
<path d="M2606 1913 c-179 -207 -326 -380 -326 -383 0 -3 10 -18 23 -33 l22
-29 325 377 c179 207 326 382 328 389 1 6 -8 22 -22 35 l-24 22 -326 -378z"/>
<path d="M9035 2161 c-48 -29 -79 -54 -77 -62 3 -11 657 -1212 669 -1228 4 -6
165 93 170 105 5 13 -659 1226 -674 1231 -4 2 -44 -19 -88 -46z"/>
<path d="M9741 2176 l-23 -24 301 -393 c166 -217 307 -395 314 -397 7 -1 21 6
31 17 17 19 11 29 -274 403 -161 211 -300 391 -309 401 -16 17 -18 16 -40 -7z"/>
<path d="M3646 1427 c-327 -583 -347 -622 -329 -635 10 -7 49 -29 87 -49 56
-28 71 -32 81 -21 15 16 685 1216 685 1226 0 4 -40 28 -88 54 l-88 46 -348
-621z"/>
<path d="M3082 1541 c-155 -225 -282 -413 -282 -418 0 -5 13 -17 29 -26 l30
-18 41 58 c22 32 150 218 284 413 l245 355 -25 23 c-14 12 -29 22 -33 22 -4 0
-134 -184 -289 -409z"/>
<path d="M8775 1568 c-11 -6 -21 -12 -23 -13 -3 -3 427 -898 437 -908 9 -9 61
12 61 25 0 22 -431 903 -442 905 -7 2 -22 -2 -33 -9z"/>
<path d="M4367 1403 c-10 -17 -377 -926 -375 -928 7 -5 71 -25 73 -23 8 12
376 930 373 932 -6 4 -59 26 -63 26 -2 0 -6 -3 -8 -7z"/>
<path d="M6425 1213 c6 -217 25 -1063 25 -1157 l0 -58 100 4 c54 2 101 6 105
9 3 3 1 181 -4 395 -6 214 -13 527 -17 697 l-6 307 -105 0 -104 0 6 -197z"/>
<path d="M8247 1348 c-21 -7 -27 -15 -22 -27 4 -9 78 -212 165 -451 87 -239
163 -447 169 -462 9 -25 12 -26 40 -15 17 6 31 16 31 22 0 9 -248 697 -316
878 -14 37 -29 67 -32 66 -4 0 -20 -5 -35 -11z"/>
<path d="M4884 1173 c-156 -532 -261 -909 -256 -914 4 -4 21 -10 38 -13 l31
-7 139 483 c77 266 138 486 135 489 -3 4 -20 10 -38 14 -32 6 -32 6 -49 -52z"/>
<path d="M7720 1181 c-14 -4 -24 -12 -24 -17 1 -5 55 -224 120 -486 108 -438
119 -478 138 -478 54 1 55 -9 -70 501 -66 265 -124 483 -129 485 -6 1 -21 -1
-35 -5z"/>
<path d="M5432 1053 c-33 -172 -162 -936 -159 -940 2 -2 19 -8 36 -13 23 -6
33 -5 36 3 12 33 172 983 166 988 -3 4 -20 10 -37 13 l-31 7 -11 -58z"/>
<path d="M7124 1043 c6 -28 136 -954 136 -966 0 -10 78 -9 83 1 2 4 -26 223
-64 487 -38 264 -69 486 -69 493 0 8 -16 12 -46 12 -44 0 -45 -1 -40 -27z"/>
<path d="M6020 1021 c0 -5 -18 -229 -40 -497 -22 -269 -40 -492 -40 -496 0 -5
15 -8 34 -8 33 0 35 2 40 42 6 45 76 923 76 951 0 13 -9 17 -35 17 -19 0 -35
-4 -35 -9z"/>
</g>
</svg>
